<svg aria-roledescription="er" role="graphics-document document" viewBox="0 0 192.81369018554688 526" style="max-width: 192.814px; background-color: white;" xmlns:xlink="http://www.w3.org/1999/xlink" xmlns="http://www.w3.org/2000/svg" width="100%" id="my-svg"><style>#my-svg{font-family:"trebuchet ms",verdana,arial,sans-serif;font-size:16px;fill:#000000;}#my-svg .error-icon{fill:#552222;}#my-svg .error-text{fill:#552222;stroke:#552222;}#my-svg .edge-thickness-normal{stroke-width:2px;}#my-svg .edge-thickness-thick{stroke-width:3.5px;}#my-svg .edge-pattern-solid{stroke-dasharray:0;}#my-svg .edge-pattern-dashed{stroke-dasharray:3;}#my-svg .edge-pattern-dotted{stroke-dasharray:2;}#my-svg .marker{fill:#000000;stroke:#000000;}#my-svg .marker.cross{stroke:#000000;}#my-svg svg{font-family:"trebuchet ms",verdana,arial,sans-serif;font-size:16px;}#my-svg .entityBox{fill:#cde498;stroke:#13540c;}#my-svg .attributeBoxOdd{fill:#ffffff;stroke:#13540c;}#my-svg .attributeBoxEven{fill:#f2f2f2;stroke:#13540c;}#my-svg .relationshipLabelBox{fill:hsl(78.1578947368, 58.4615384615%, 84.5098039216%);opacity:0.7;background-color:hsl(78.1578947368, 58.4615384615%, 84.5098039216%);}#my-svg .relationshipLabelBox rect{opacity:0.5;}#my-svg .relationshipLine{stroke:#000000;}#my-svg .entityTitleText{text-anchor:middle;font-size:18px;fill:#000000;}#my-svg #MD_PARENT_START{fill:#f5f5f5!important;stroke:#000000!important;stroke-width:1;}#my-svg #MD_PARENT_END{fill:#f5f5f5!important;stroke:#000000!important;stroke-width:1;}#my-svg :root{--mermaid-font-family:"trebuchet ms",verdana,arial,sans-serif;}</style><g/><defs><marker orient="auto" markerHeight="240" markerWidth="190" refY="7" refX="0" id="MD_PARENT_START"><path d="M 18,7 L9,13 L1,7 L9,1 Z"/></marker></defs><defs><marker orient="auto" markerHeight="28" markerWidth="20" refY="7" refX="19" id="MD_PARENT_END"><path d="M 18,7 L9,13 L1,7 L9,1 Z"/></marker></defs><defs><marker orient="auto" markerHeight="18" markerWidth="18" refY="9" refX="0" id="ONLY_ONE_START"><path d="M9,0 L9,18 M15,0 L15,18" fill="none" stroke="gray"/></marker></defs><defs><marker orient="auto" markerHeight="18" markerWidth="18" refY="9" refX="18" id="ONLY_ONE_END"><path d="M3,0 L3,18 M9,0 L9,18" fill="none" stroke="gray"/></marker></defs><defs><marker orient="auto" markerHeight="18" markerWidth="30" refY="9" refX="0" id="ZERO_OR_ONE_START"><circle r="6" cy="9" cx="21" fill="white" stroke="gray"/><path d="M9,0 L9,18" fill="none" stroke="gray"/></marker></defs><defs><marker orient="auto" markerHeight="18" markerWidth="30" refY="9" refX="30" id="ZERO_OR_ONE_END"><circle r="6" cy="9" cx="9" fill="white" stroke="gray"/><path d="M21,0 L21,18" fill="none" stroke="gray"/></marker></defs><defs><marker orient="auto" markerHeight="36" markerWidth="45" refY="18" refX="18" id="ONE_OR_MORE_START"><path d="M0,18 Q 18,0 36,18 Q 18,36 0,18 M42,9 L42,27" fill="none" stroke="gray"/></marker></defs><defs><marker orient="auto" markerHeight="36" markerWidth="45" refY="18" refX="27" id="ONE_OR_MORE_END"><path d="M3,9 L3,27 M9,18 Q27,0 45,18 Q27,36 9,18" fill="none" stroke="gray"/></marker></defs><defs><marker orient="auto" markerHeight="36" markerWidth="57" refY="18" refX="18" id="ZERO_OR_MORE_START"><circle r="6" cy="18" cx="48" fill="white" stroke="gray"/><path d="M0,18 Q18,0 36,18 Q18,36 0,18" fill="none" stroke="gray"/></marker></defs><defs><marker orient="auto" markerHeight="36" markerWidth="57" refY="18" refX="39" id="ZERO_OR_MORE_END"><circle r="6" cy="18" cx="9" fill="white" stroke="gray"/><path d="M21,18 Q39,0 57,18 Q39,36 21,18" fill="none" stroke="gray"/></marker></defs><path style="stroke: gray; fill: none;" marker-start="url(#ZERO_OR_MORE_START)" marker-end="url(#ZERO_OR_MORE_END)" d="M70.21636890229725,130L66.24811493404327,138.33333333333334C62.27986096578931,146.66666666666666,54.34335302928137,163.33333333333334,54.34335302928137,180C54.34335302928137,196.66666666666666,62.27986096578931,213.33333333333334,66.24811493404327,221.66666666666666L70.21636890229725,230" class="er relationshipLine"/><path style="stroke: gray; fill: none;" marker-start="url(#ZERO_OR_ONE_START)" marker-end="url(#ONLY_ONE_END)" d="M96.40684509277344,340L96.40684509277344,348.3333333333333C96.40684509277344,356.6666666666667,96.40684509277344,373.3333333333333,96.40684509277344,390C96.40684509277344,406.6666666666667,96.40684509277344,423.3333333333333,96.40684509277344,431.6666666666667L96.40684509277344,440" class="er relationshipLine"/><path style="stroke: gray; fill: none;" marker-start="url(#ZERO_OR_ONE_START)" marker-end="url(#ONLY_ONE_END)" d="M122.59732128324963,230L126.5655752515036,221.66666666666666C130.53382921975756,213.33333333333334,138.47033715626551,196.66666666666666,138.4703371562655,180C138.47033715626551,163.33333333333334,130.53382921975756,146.66666666666666,126.5655752515036,138.33333333333334L122.59732128324963,130" class="er relationshipLine"/><g transform="translate(31.274032592773438,440 )" id="entity-TransactionsTypes-800d1d38-b57a-57f6-b3a4-14d85ae0355b"><rect height="66" width="130.265625" y="0" x="0" class="er entityBox"/><text style="dominant-baseline: middle; text-anchor: middle; font-size: 12px;" transform="translate(65.1328125,12)" y="0" x="0" id="text-entity-TransactionsTypes-800d1d38-b57a-57f6-b3a4-14d85ae0355b" class="er entityLabel">TransactionsTypes</text><rect height="21" width="65.1328125" y="24" x="0" class="er attributeBoxOdd"/><text style="dominant-baseline: middle; font-size: 10.2px;" transform="translate(5,34.5)" y="0" x="0" id="text-entity-TransactionsTypes-800d1d38-b57a-57f6-b3a4-14d85ae0355b-attr-1-type" class="er entityLabel">outcome</text><rect height="21" width="65.1328125" y="24" x="65.1328125" class="er attributeBoxOdd"/><text style="dominant-baseline: middle; font-size: 10.2px;" transform="translate(70.1328125,34.5)" y="0" x="0" id="text-entity-TransactionsTypes-800d1d38-b57a-57f6-b3a4-14d85ae0355b-attr-1-name" class="er entityLabel">outcome</text><rect height="21" width="65.1328125" y="45" x="0" class="er attributeBoxEven"/><text style="dominant-baseline: middle; font-size: 10.2px;" transform="translate(5,55.5)" y="0" x="0" id="text-entity-TransactionsTypes-800d1d38-b57a-57f6-b3a4-14d85ae0355b-attr-2-type" class="er entityLabel">income</text><rect height="21" width="65.1328125" y="45" x="65.1328125" class="er attributeBoxEven"/><text style="dominant-baseline: middle; font-size: 10.2px;" transform="translate(70.1328125,55.5)" y="0" x="0" id="text-entity-TransactionsTypes-800d1d38-b57a-57f6-b3a4-14d85ae0355b-attr-2-name" class="er entityLabel">income</text></g><g transform="translate(39.466064453125,20 )" id="entity-User-818c511a-4a32-5484-ba70-875d765a9175"><rect height="110" width="113.88156127929688" y="0" x="0" class="er entityBox"/><text style="dominant-baseline: middle; text-anchor: middle; font-size: 12px;" transform="translate(56.94078063964844,12)" y="0" x="0" id="text-entity-User-818c511a-4a32-5484-ba70-875d765a9175" class="er entityLabel">User</text><rect height="23" width="36.947052001953125" y="24" x="0" class="er attributeBoxOdd"/><text style="dominant-baseline: middle; font-size: 10.2px;" transform="translate(5,35.5)" y="0" x="0" id="text-entity-User-818c511a-4a32-5484-ba70-875d765a9175-attr-1-type" class="er entityLabel">String</text><rect height="23" width="53.93450927734375" y="24" x="36.947052001953125" class="er attributeBoxOdd"/><text style="dominant-baseline: middle; font-size: 10.2px;" transform="translate(41.947052001953125,35.5)" y="0" x="0" id="text-entity-User-818c511a-4a32-5484-ba70-875d765a9175-attr-1-name" class="er entityLabel">id</text><rect height="23" width="23" y="24" x="90.88156127929688" class="er attributeBoxOdd"/><text style="dominant-baseline: middle; font-size: 10.2px;" transform="translate(95.88156127929688,35.5)" y="0" x="0" id="text-entity-User-818c511a-4a32-5484-ba70-875d765a9175-attr-1-comment" class="er entityLabel">🗝️</text><rect height="21" width="36.947052001953125" y="47" x="0" class="er attributeBoxEven"/><text style="dominant-baseline: middle; font-size: 10.2px;" transform="translate(5,57.5)" y="0" x="0" id="text-entity-User-818c511a-4a32-5484-ba70-875d765a9175-attr-2-type" class="er entityLabel">String</text><rect height="21" width="53.93450927734375" y="47" x="36.947052001953125" class="er attributeBoxEven"/><text style="dominant-baseline: middle; font-size: 10.2px;" transform="translate(41.947052001953125,57.5)" y="0" x="0" id="text-entity-User-818c511a-4a32-5484-ba70-875d765a9175-attr-2-name" class="er entityLabel">name</text><rect height="21" width="23" y="47" x="90.88156127929688" class="er attributeBoxEven"/><text style="dominant-baseline: middle; font-size: 10.2px;" transform="translate(95.88156127929688,57.5)" y="0" x="0" id="text-entity-User-818c511a-4a32-5484-ba70-875d765a9175-attr-2-comment" class="er entityLabel"/><rect height="21" width="36.947052001953125" y="68" x="0" class="er attributeBoxOdd"/><text style="dominant-baseline: middle; font-size: 10.2px;" transform="translate(5,78.5)" y="0" x="0" id="text-entity-User-818c511a-4a32-5484-ba70-875d765a9175-attr-3-type" class="er entityLabel">String</text><rect height="21" width="53.93450927734375" y="68" x="36.947052001953125" class="er attributeBoxOdd"/><text style="dominant-baseline: middle; font-size: 10.2px;" transform="translate(41.947052001953125,78.5)" y="0" x="0" id="text-entity-User-818c511a-4a32-5484-ba70-875d765a9175-attr-3-name" class="er entityLabel">email</text><rect height="21" width="23" y="68" x="90.88156127929688" class="er attributeBoxOdd"/><text style="dominant-baseline: middle; font-size: 10.2px;" transform="translate(95.88156127929688,78.5)" y="0" x="0" id="text-entity-User-818c511a-4a32-5484-ba70-875d765a9175-attr-3-comment" class="er entityLabel"/><rect height="21" width="36.947052001953125" y="89" x="0" class="er attributeBoxEven"/><text style="dominant-baseline: middle; font-size: 10.2px;" transform="translate(5,99.5)" y="0" x="0" id="text-entity-User-818c511a-4a32-5484-ba70-875d765a9175-attr-4-type" class="er entityLabel">String</text><rect height="21" width="53.93450927734375" y="89" x="36.947052001953125" class="er attributeBoxEven"/><text style="dominant-baseline: middle; font-size: 10.2px;" transform="translate(41.947052001953125,99.5)" y="0" x="0" id="text-entity-User-818c511a-4a32-5484-ba70-875d765a9175-attr-4-name" class="er entityLabel">password</text><rect height="21" width="23" y="89" x="90.88156127929688" class="er attributeBoxEven"/><text style="dominant-baseline: middle; font-size: 10.2px;" transform="translate(95.88156127929688,99.5)" y="0" x="0" id="text-entity-User-818c511a-4a32-5484-ba70-875d765a9175-attr-4-comment" class="er entityLabel"/></g><g transform="translate(20,230 )" id="entity-Transactions-e4309bf2-7d25-5727-9845-92fca8e1a191"><rect height="110" width="152.81369018554688" y="0" x="0" class="er entityBox"/><text style="dominant-baseline: middle; text-anchor: middle; font-size: 12px;" transform="translate(76.40684509277344,12)" y="0" x="0" id="text-entity-Transactions-e4309bf2-7d25-5727-9845-92fca8e1a191" class="er entityLabel">Transactions</text><rect height="23" width="95.125" y="24" x="0" class="er attributeBoxOdd"/><text style="dominant-baseline: middle; font-size: 10.2px;" transform="translate(5,35.5)" y="0" x="0" id="text-entity-Transactions-e4309bf2-7d25-5727-9845-92fca8e1a191-attr-1-type" class="er entityLabel">String</text><rect height="23" width="34.688690185546875" y="24" x="95.125" class="er attributeBoxOdd"/><text style="dominant-baseline: middle; font-size: 10.2px;" transform="translate(100.125,35.5)" y="0" x="0" id="text-entity-Transactions-e4309bf2-7d25-5727-9845-92fca8e1a191-attr-1-name" class="er entityLabel">id</text><rect height="23" width="23" y="24" x="129.81369018554688" class="er attributeBoxOdd"/><text style="dominant-baseline: middle; font-size: 10.2px;" transform="translate(134.81369018554688,35.5)" y="0" x="0" id="text-entity-Transactions-e4309bf2-7d25-5727-9845-92fca8e1a191-attr-1-comment" class="er entityLabel">🗝️</text><rect height="21" width="95.125" y="47" x="0" class="er attributeBoxEven"/><text style="dominant-baseline: middle; font-size: 10.2px;" transform="translate(5,57.5)" y="0" x="0" id="text-entity-Transactions-e4309bf2-7d25-5727-9845-92fca8e1a191-attr-2-type" class="er entityLabel">String</text><rect height="21" width="34.688690185546875" y="47" x="95.125" class="er attributeBoxEven"/><text style="dominant-baseline: middle; font-size: 10.2px;" transform="translate(100.125,57.5)" y="0" x="0" id="text-entity-Transactions-e4309bf2-7d25-5727-9845-92fca8e1a191-attr-2-name" class="er entityLabel">title</text><rect height="21" width="23" y="47" x="129.81369018554688" class="er attributeBoxEven"/><text style="dominant-baseline: middle; font-size: 10.2px;" transform="translate(134.81369018554688,57.5)" y="0" x="0" id="text-entity-Transactions-e4309bf2-7d25-5727-9845-92fca8e1a191-attr-2-comment" class="er entityLabel"/><rect height="21" width="95.125" y="68" x="0" class="er attributeBoxOdd"/><text style="dominant-baseline: middle; font-size: 10.2px;" transform="translate(5,78.5)" y="0" x="0" id="text-entity-Transactions-e4309bf2-7d25-5727-9845-92fca8e1a191-attr-3-type" class="er entityLabel">String</text><rect height="21" width="34.688690185546875" y="68" x="95.125" class="er attributeBoxOdd"/><text style="dominant-baseline: middle; font-size: 10.2px;" transform="translate(100.125,78.5)" y="0" x="0" id="text-entity-Transactions-e4309bf2-7d25-5727-9845-92fca8e1a191-attr-3-name" class="er entityLabel">value</text><rect height="21" width="23" y="68" x="129.81369018554688" class="er attributeBoxOdd"/><text style="dominant-baseline: middle; font-size: 10.2px;" transform="translate(134.81369018554688,78.5)" y="0" x="0" id="text-entity-Transactions-e4309bf2-7d25-5727-9845-92fca8e1a191-attr-3-comment" class="er entityLabel"/><rect height="21" width="95.125" y="89" x="0" class="er attributeBoxEven"/><text style="dominant-baseline: middle; font-size: 10.2px;" transform="translate(5,99.5)" y="0" x="0" id="text-entity-Transactions-e4309bf2-7d25-5727-9845-92fca8e1a191-attr-4-type" class="er entityLabel">TransactionsTypes</text><rect height="21" width="34.688690185546875" y="89" x="95.125" class="er attributeBoxEven"/><text style="dominant-baseline: middle; font-size: 10.2px;" transform="translate(100.125,99.5)" y="0" x="0" id="text-entity-Transactions-e4309bf2-7d25-5727-9845-92fca8e1a191-attr-4-name" class="er entityLabel">type</text><rect height="21" width="23" y="89" x="129.81369018554688" class="er attributeBoxEven"/><text style="dominant-baseline: middle; font-size: 10.2px;" transform="translate(134.81369018554688,99.5)" y="0" x="0" id="text-entity-Transactions-e4309bf2-7d25-5727-9845-92fca8e1a191-attr-4-comment" class="er entityLabel"/></g><rect height="14" width="68.25" y="173" x="20.218353271484375" class="er relationshipLabelBox"/><text style="text-anchor: middle; dominant-baseline: middle; font-size: 12px;" y="180" x="54.343353271484375" id="rel1" class="er relationshipLabel">Transactions</text><rect height="14" width="56.359375" y="383" x="68.22715759277344" class="er relationshipLabelBox"/><text style="text-anchor: middle; dominant-baseline: middle; font-size: 12px;" y="390" x="96.40684509277344" id="rel2" class="er relationshipLabel">enum:type</text><rect height="14" width="23.34765625" y="172.99998474121094" x="126.7965087890625" class="er relationshipLabelBox"/><text style="text-anchor: middle; dominant-baseline: middle; font-size: 12px;" y="179.99998474121094" x="138.4703369140625" id="rel3" class="er relationshipLabel">user</text></svg>